<mxfile host="65bd71144e">
    <diagram id="GFclDaCIk4YAcfMqffFD" name="Page-1">
        <mxGraphModel dx="1698" dy="1182" grid="1" gridSize="10" guides="1" tooltips="1" connect="1" arrows="1" fold="1" page="1" pageScale="1" pageWidth="850" pageHeight="1100" math="0" shadow="0">
            <root>
                <mxCell id="0"/>
                <mxCell id="1" parent="0"/>
                <mxCell id="2" value="" style="strokeWidth=1;shadow=0;dashed=0;align=center;html=1;shape=mxgraph.mockup.containers.browserWindow;rSize=0;strokeColor=#666666;strokeColor2=#008cff;strokeColor3=#c4c4c4;mainText=,;recursiveResize=0;" parent="1" vertex="1">
                    <mxGeometry x="210" y="480" width="850" height="1190" as="geometry"/>
                </mxCell>
                <mxCell id="3" value="Gamestopia" style="strokeWidth=1;shadow=0;dashed=0;align=center;html=1;shape=mxgraph.mockup.containers.anchor;fontSize=17;fontColor=#666666;align=left;" parent="2" vertex="1">
                    <mxGeometry x="60" y="12" width="170" height="26" as="geometry"/>
                </mxCell>
                <mxCell id="4" value="https://www.draw.io" style="strokeWidth=1;shadow=0;dashed=0;align=center;html=1;shape=mxgraph.mockup.containers.anchor;rSize=0;fontSize=17;fontColor=#666666;align=left;" parent="2" vertex="1">
                    <mxGeometry x="130" y="60" width="250" height="26" as="geometry"/>
                </mxCell>
                <mxCell id="81" value="" style="group" parent="2" vertex="1" connectable="0">
                    <mxGeometry y="110" width="850" height="70" as="geometry"/>
                </mxCell>
                <mxCell id="14" value="" style="rounded=0;whiteSpace=wrap;html=1;strokeColor=#000000;fillColor=none;" parent="81" vertex="1">
                    <mxGeometry width="850" height="70" as="geometry"/>
                </mxCell>
                <mxCell id="12" value="Gamestopia" style="text;strokeColor=none;fillColor=none;html=1;fontSize=24;fontStyle=1;verticalAlign=middle;align=center;" parent="81" vertex="1">
                    <mxGeometry x="15" y="15" width="160" height="40" as="geometry"/>
                </mxCell>
                <mxCell id="59" value="" style="group" parent="81" vertex="1" connectable="0">
                    <mxGeometry x="634" y="20" width="90" height="30" as="geometry"/>
                </mxCell>
                <mxCell id="19" value="" style="html=1;verticalLabelPosition=bottom;align=center;labelBackgroundColor=#ffffff;verticalAlign=top;strokeWidth=2;strokeColor=#000000;shadow=0;dashed=0;shape=mxgraph.ios7.icons.user;fillColor=none;" parent="59" vertex="1">
                    <mxGeometry width="30" height="30" as="geometry"/>
                </mxCell>
                <mxCell id="20" value="Hello,&lt;br&gt;Username" style="text;html=1;strokeColor=none;fillColor=none;align=left;verticalAlign=middle;whiteSpace=wrap;rounded=0;" parent="59" vertex="1">
                    <mxGeometry x="40" width="50" height="30" as="geometry"/>
                </mxCell>
                <mxCell id="60" value="" style="group" parent="81" vertex="1" connectable="0">
                    <mxGeometry x="528" y="20" width="80" height="30" as="geometry"/>
                </mxCell>
                <mxCell id="46" value="" style="html=1;verticalLabelPosition=bottom;align=center;labelBackgroundColor=#ffffff;verticalAlign=top;strokeWidth=2;strokeColor=#000000;shadow=0;dashed=0;shape=mxgraph.ios7.icons.globe;fontSize=15;fontColor=#000000;fillColor=none;" parent="60" vertex="1">
                    <mxGeometry width="30" height="30" as="geometry"/>
                </mxCell>
                <mxCell id="52" value="EN&amp;nbsp;" style="text;html=1;strokeColor=none;fillColor=none;align=left;verticalAlign=middle;whiteSpace=wrap;rounded=0;container=0;" parent="60" vertex="1">
                    <mxGeometry x="40" width="40" height="30" as="geometry"/>
                </mxCell>
                <mxCell id="54" value="" style="html=1;verticalLabelPosition=bottom;labelBackgroundColor=#ffffff;verticalAlign=top;shadow=0;dashed=0;strokeWidth=2;shape=mxgraph.ios7.misc.down;strokeColor=default;fontSize=15;fontColor=#000000;fillColor=none;container=0;" parent="60" vertex="1">
                    <mxGeometry x="63" y="14.120000000000005" width="8" height="3" as="geometry"/>
                </mxCell>
                <mxCell id="79" value="" style="group" parent="81" vertex="1" connectable="0">
                    <mxGeometry x="194" y="20.120000000000005" width="300" height="30" as="geometry"/>
                </mxCell>
                <mxCell id="76" value="" style="html=1;verticalLabelPosition=bottom;align=center;labelBackgroundColor=#ffffff;verticalAlign=top;strokeWidth=2;strokeColor=#000000;shadow=0;dashed=0;shape=mxgraph.ios7.icons.looking_glass;fontSize=15;fontColor=#000000;fillColor=none;" parent="79" vertex="1">
                    <mxGeometry x="270" y="4.939999999999998" width="20" height="20.12" as="geometry"/>
                </mxCell>
                <mxCell id="77" value="&amp;nbsp; Search" style="rounded=1;whiteSpace=wrap;html=1;strokeColor=#000000;fontSize=15;fontColor=#000000;fillColor=none;align=left;" parent="79" vertex="1">
                    <mxGeometry width="300" height="30" as="geometry"/>
                </mxCell>
                <mxCell id="569" value="" style="group" parent="81" vertex="1" connectable="0">
                    <mxGeometry x="750" y="20" width="87" height="30" as="geometry"/>
                </mxCell>
                <mxCell id="17" value="My Rentals" style="text;html=1;strokeColor=none;fillColor=none;align=left;verticalAlign=middle;whiteSpace=wrap;rounded=0;" parent="569" vertex="1">
                    <mxGeometry x="37" width="50" height="30" as="geometry"/>
                </mxCell>
                <mxCell id="567" value="" style="html=1;verticalLabelPosition=bottom;align=center;labelBackgroundColor=#ffffff;verticalAlign=top;strokeWidth=2;strokeColor=#000000;shadow=0;dashed=0;shape=mxgraph.ios7.icons.bookmark;" parent="569" vertex="1">
                    <mxGeometry width="22.5" height="30" as="geometry"/>
                </mxCell>
                <mxCell id="555" value="" style="group" parent="2" vertex="1" connectable="0">
                    <mxGeometry y="180" width="850" height="50" as="geometry"/>
                </mxCell>
                <mxCell id="36" value="" style="rounded=0;whiteSpace=wrap;html=1;strokeColor=default;fontColor=#000000;fillColor=none;" parent="555" vertex="1">
                    <mxGeometry width="850" height="50" as="geometry"/>
                </mxCell>
                <mxCell id="169" value="Trade-in" style="text;html=1;strokeColor=none;fillColor=none;align=center;verticalAlign=middle;whiteSpace=wrap;rounded=0;fontSize=17;" parent="555" vertex="1">
                    <mxGeometry x="294" y="10" width="100" height="30" as="geometry"/>
                </mxCell>
                <mxCell id="355" value="" style="group" parent="555" vertex="1" connectable="0">
                    <mxGeometry x="80" y="10" width="115" height="30" as="geometry"/>
                </mxCell>
                <mxCell id="165" value="All Games" style="text;html=1;strokeColor=none;fillColor=none;align=left;verticalAlign=middle;whiteSpace=wrap;rounded=0;fontSize=17;" parent="355" vertex="1">
                    <mxGeometry width="115" height="30" as="geometry"/>
                </mxCell>
                <mxCell id="166" value="" style="html=1;verticalLabelPosition=bottom;labelBackgroundColor=#ffffff;verticalAlign=top;shadow=0;dashed=0;strokeWidth=2;shape=mxgraph.ios7.misc.down;strokeColor=default;fontSize=15;fontColor=#000000;fillColor=none;container=0;" parent="355" vertex="1">
                    <mxGeometry x="95" y="13.5" width="8" height="3" as="geometry"/>
                </mxCell>
                <mxCell id="389" value="Pricing" style="text;html=1;strokeColor=none;fillColor=none;align=center;verticalAlign=middle;whiteSpace=wrap;rounded=0;fontSize=17;" parent="555" vertex="1">
                    <mxGeometry x="480" y="10" width="100" height="30" as="geometry"/>
                </mxCell>
                <mxCell id="391" value="How it works" style="text;html=1;strokeColor=none;fillColor=none;align=center;verticalAlign=middle;whiteSpace=wrap;rounded=0;fontSize=17;" parent="555" vertex="1">
                    <mxGeometry x="648.75" y="10" width="114" height="30" as="geometry"/>
                </mxCell>
                <mxCell id="572" value="Welcome, Username" style="text;html=1;strokeColor=none;fillColor=none;align=left;verticalAlign=middle;whiteSpace=wrap;rounded=0;fontSize=21;" vertex="1" parent="2">
                    <mxGeometry x="80" y="280" width="230" height="30" as="geometry"/>
                </mxCell>
                <mxCell id="602" value="" style="rounded=0;whiteSpace=wrap;html=1;fontSize=18;fillColor=none;" vertex="1" parent="2">
                    <mxGeometry x="480" y="330" width="300" height="240" as="geometry"/>
                </mxCell>
                <mxCell id="601" value="" style="rounded=0;whiteSpace=wrap;html=1;fontSize=18;fillColor=none;" vertex="1" parent="2">
                    <mxGeometry x="80" y="330" width="370" height="240" as="geometry"/>
                </mxCell>
                <mxCell id="574" value="Current Plan" style="text;html=1;strokeColor=none;fillColor=none;align=left;verticalAlign=middle;whiteSpace=wrap;rounded=0;fontSize=18;" vertex="1" parent="2">
                    <mxGeometry x="102.5" y="345" width="220" height="30" as="geometry"/>
                </mxCell>
                <mxCell id="575" value="&lt;b&gt;Pro&lt;/b&gt;" style="text;html=1;strokeColor=none;fillColor=none;align=left;verticalAlign=middle;whiteSpace=wrap;rounded=0;fontSize=21;" vertex="1" parent="2">
                    <mxGeometry x="102.5" y="385" width="60" height="30" as="geometry"/>
                </mxCell>
                <mxCell id="576" value="End date: yyyy/mm/dd&amp;nbsp; &amp;nbsp; &amp;nbsp; &amp;nbsp; &amp;nbsp; &amp;nbsp; &amp;nbsp;&lt;u&gt;Renew&lt;/u&gt;" style="text;html=1;strokeColor=none;fillColor=none;align=left;verticalAlign=middle;whiteSpace=wrap;rounded=0;fontSize=18;" vertex="1" parent="2">
                    <mxGeometry x="102.5" y="434" width="337.5" height="30" as="geometry"/>
                </mxCell>
                <mxCell id="577" value="Change my plan" style="rounded=1;whiteSpace=wrap;html=1;fontSize=18;" vertex="1" parent="2">
                    <mxGeometry x="143.43" y="520" width="255.63" height="30" as="geometry"/>
                </mxCell>
                <mxCell id="613" value="Payment: VISA 1234&amp;nbsp; &amp;nbsp; &amp;nbsp; &amp;nbsp; &amp;nbsp; &amp;nbsp; &amp;nbsp; &amp;nbsp;&lt;u&gt;Edit&lt;/u&gt;" style="text;html=1;strokeColor=none;fillColor=none;align=left;verticalAlign=middle;whiteSpace=wrap;rounded=0;fontSize=18;" vertex="1" parent="2">
                    <mxGeometry x="102.5" y="470" width="337.5" height="30" as="geometry"/>
                </mxCell>
                <mxCell id="580" value="My Rentals" style="text;html=1;strokeColor=none;fillColor=none;align=left;verticalAlign=middle;whiteSpace=wrap;rounded=0;fontSize=18;" vertex="1" parent="2">
                    <mxGeometry x="496.75" y="345" width="143.25" height="30" as="geometry"/>
                </mxCell>
                <mxCell id="625" value="My Addresses" style="rounded=0;whiteSpace=wrap;html=1;fontSize=18;fillColor=none;" vertex="1" parent="2">
                    <mxGeometry x="80" y="620" width="350" height="60" as="geometry"/>
                </mxCell>
                <mxCell id="626" value="My Payment Methods" style="rounded=0;whiteSpace=wrap;html=1;fontSize=18;fillColor=#f5f5f5;fontColor=#333333;strokeColor=#000000;fontStyle=4" vertex="1" parent="2">
                    <mxGeometry x="430" y="620" width="350" height="60" as="geometry"/>
                </mxCell>
                <mxCell id="627" value="" style="rounded=0;whiteSpace=wrap;html=1;fontSize=18;fillColor=none;" vertex="1" parent="2">
                    <mxGeometry x="80" y="680" width="700" height="210" as="geometry"/>
                </mxCell>
                <mxCell id="628" value="Cardholder" style="text;html=1;strokeColor=none;fillColor=none;align=left;verticalAlign=middle;whiteSpace=wrap;rounded=0;fontSize=18;" vertex="1" parent="2">
                    <mxGeometry x="353.75" y="710" width="100" height="30" as="geometry"/>
                </mxCell>
                <mxCell id="631" value="Expiry Date" style="text;html=1;strokeColor=none;fillColor=none;align=left;verticalAlign=middle;whiteSpace=wrap;rounded=0;fontSize=18;" vertex="1" parent="2">
                    <mxGeometry x="486.75" y="710" width="135" height="30" as="geometry"/>
                </mxCell>
                <mxCell id="630" value="Ending with" style="text;html=1;strokeColor=none;fillColor=none;align=left;verticalAlign=middle;whiteSpace=wrap;rounded=0;fontSize=18;" vertex="1" parent="2">
                    <mxGeometry x="220" y="710" width="117" height="30" as="geometry"/>
                </mxCell>
                <mxCell id="633" value="" style="verticalLabelPosition=bottom;shadow=0;dashed=0;align=center;html=1;verticalAlign=top;strokeWidth=1;shape=mxgraph.mockup.markup.line;strokeColor=#999999;fontSize=18;fillColor=none;" vertex="1" parent="2">
                    <mxGeometry x="102.5" y="730" width="647.5" height="20" as="geometry"/>
                </mxCell>
                <mxCell id="637" value="TD" style="text;html=1;strokeColor=none;fillColor=none;align=left;verticalAlign=middle;whiteSpace=wrap;rounded=0;fontSize=18;" vertex="1" parent="2">
                    <mxGeometry x="115" y="750" width="60" height="30" as="geometry"/>
                </mxCell>
                <mxCell id="638" value="1234" style="text;html=1;strokeColor=none;fillColor=none;align=left;verticalAlign=middle;whiteSpace=wrap;rounded=0;fontSize=18;" vertex="1" parent="2">
                    <mxGeometry x="220" y="750" width="60" height="30" as="geometry"/>
                </mxCell>
                <mxCell id="639" value="John Smith" style="text;html=1;strokeColor=none;fillColor=none;align=left;verticalAlign=middle;whiteSpace=wrap;rounded=0;fontSize=18;" vertex="1" parent="2">
                    <mxGeometry x="350" y="750" width="103.75" height="30" as="geometry"/>
                </mxCell>
                <mxCell id="641" value="&lt;u&gt;Edit&amp;nbsp;&lt;/u&gt; &amp;nbsp; &amp;nbsp; &lt;u&gt;Remove&lt;/u&gt;" style="text;html=1;strokeColor=none;fillColor=none;align=left;verticalAlign=middle;whiteSpace=wrap;rounded=0;fontSize=18;" vertex="1" parent="2">
                    <mxGeometry x="610" y="750" width="150" height="30" as="geometry"/>
                </mxCell>
                <mxCell id="648" value="Add a new card" style="text;html=1;strokeColor=none;fillColor=none;align=left;verticalAlign=middle;whiteSpace=wrap;rounded=0;fontSize=18;fontStyle=4" vertex="1" parent="2">
                    <mxGeometry x="102.5" y="840" width="137.5" height="30" as="geometry"/>
                </mxCell>
                <mxCell id="550" value="" style="group" parent="2" vertex="1" connectable="0">
                    <mxGeometry y="980" width="850" height="210" as="geometry"/>
                </mxCell>
                <mxCell id="160" value="" style="rounded=0;whiteSpace=wrap;html=1;" parent="550" vertex="1">
                    <mxGeometry width="850" height="210" as="geometry"/>
                </mxCell>
                <mxCell id="153" value="&lt;b&gt;&lt;font style=&quot;font-size: 16px;&quot;&gt;Follow Us&lt;/font&gt;&lt;/b&gt;" style="text;html=1;align=left;verticalAlign=middle;whiteSpace=wrap;rounded=0;" parent="550" vertex="1">
                    <mxGeometry x="611" y="30" width="120" height="30" as="geometry"/>
                </mxCell>
                <mxCell id="154" value="" style="shape=image;html=1;verticalAlign=top;verticalLabelPosition=bottom;labelBackgroundColor=#ffffff;imageAspect=0;aspect=fixed;image=https://cdn2.iconfinder.com/data/icons/social-media-2285/512/1_Facebook_colored_svg_copy-128.png;fillColor=none;strokeColor=none;" parent="550" vertex="1">
                    <mxGeometry x="614" y="72.5" width="27.5" height="27.5" as="geometry"/>
                </mxCell>
                <mxCell id="155" value="" style="shape=image;html=1;verticalAlign=top;verticalLabelPosition=bottom;labelBackgroundColor=#ffffff;imageAspect=0;aspect=fixed;image=https://cdn3.iconfinder.com/data/icons/2018-social-media-logotypes/1000/2018_social_media_popular_app_logo_twitter-128.png;fillColor=none;strokeColor=none;" parent="550" vertex="1">
                    <mxGeometry x="659" y="72.5" width="27.5" height="27.5" as="geometry"/>
                </mxCell>
                <mxCell id="156" value="" style="shape=image;html=1;verticalAlign=top;verticalLabelPosition=bottom;labelBackgroundColor=#ffffff;imageAspect=0;aspect=fixed;image=https://cdn4.iconfinder.com/data/icons/social-media-flat-7/64/Social-media_Youtube-128.png;fillColor=none;strokeColor=none;" parent="550" vertex="1">
                    <mxGeometry x="702" y="71.25" width="30" height="30" as="geometry"/>
                </mxCell>
                <mxCell id="158" value="" style="dashed=0;outlineConnect=0;html=1;align=center;labelPosition=center;verticalLabelPosition=bottom;verticalAlign=top;shape=mxgraph.weblogos.instagram;fillColor=none;strokeColor=none;" parent="550" vertex="1">
                    <mxGeometry x="747" y="72.5" width="29" height="27.5" as="geometry"/>
                </mxCell>
                <mxCell id="399" value="" style="verticalLabelPosition=bottom;shadow=0;dashed=0;align=center;html=1;verticalAlign=top;strokeWidth=1;shape=mxgraph.mockup.markup.line;strokeColor=#999999;fontSize=16;fontColor=#000000;fillColor=#808080;" parent="550" vertex="1">
                    <mxGeometry x="68" y="150" width="710" height="20" as="geometry"/>
                </mxCell>
                <mxCell id="400" value="&lt;b&gt;&lt;font style=&quot;font-size: 16px;&quot;&gt;Support&lt;/font&gt;&lt;/b&gt;" style="text;html=1;align=left;verticalAlign=middle;whiteSpace=wrap;rounded=0;" parent="550" vertex="1">
                    <mxGeometry x="70" y="30" width="120" height="30" as="geometry"/>
                </mxCell>
                <mxCell id="401" value="&lt;span style=&quot;font-size: 16px;&quot;&gt;&lt;b&gt;Corporate&lt;/b&gt;&lt;/span&gt;" style="text;html=1;align=left;verticalAlign=middle;whiteSpace=wrap;rounded=0;" parent="550" vertex="1">
                    <mxGeometry x="250" y="30" width="120" height="30" as="geometry"/>
                </mxCell>
                <mxCell id="402" value="&lt;b&gt;&lt;font style=&quot;font-size: 16px;&quot;&gt;Legal&lt;/font&gt;&lt;/b&gt;" style="text;html=1;align=left;verticalAlign=middle;whiteSpace=wrap;rounded=0;" parent="550" vertex="1">
                    <mxGeometry x="431" y="30" width="120" height="30" as="geometry"/>
                </mxCell>
                <mxCell id="406" value="Privacy Policy" style="text;html=1;strokeColor=none;fillColor=none;align=left;verticalAlign=middle;whiteSpace=wrap;rounded=0;fontSize=13;fontColor=#000000;" parent="550" vertex="1">
                    <mxGeometry x="431" y="60" width="150" height="30" as="geometry"/>
                </mxCell>
                <mxCell id="407" value="Terms &amp;amp; Conditions" style="text;html=1;strokeColor=none;fillColor=none;align=left;verticalAlign=middle;whiteSpace=wrap;rounded=0;fontSize=13;fontColor=#000000;" parent="550" vertex="1">
                    <mxGeometry x="431" y="80" width="150" height="30" as="geometry"/>
                </mxCell>
                <mxCell id="408" value="About Us" style="text;html=1;strokeColor=none;fillColor=none;align=left;verticalAlign=middle;whiteSpace=wrap;rounded=0;fontSize=13;fontColor=#000000;" parent="550" vertex="1">
                    <mxGeometry x="250" y="60" width="150" height="30" as="geometry"/>
                </mxCell>
                <mxCell id="409" value="Our Store" style="text;html=1;strokeColor=none;fillColor=none;align=left;verticalAlign=middle;whiteSpace=wrap;rounded=0;fontSize=13;fontColor=#000000;" parent="550" vertex="1">
                    <mxGeometry x="250" y="80" width="150" height="30" as="geometry"/>
                </mxCell>
                <mxCell id="410" value="Contact Us" style="text;html=1;strokeColor=none;fillColor=none;align=left;verticalAlign=middle;whiteSpace=wrap;rounded=0;fontSize=13;fontColor=#000000;" parent="550" vertex="1">
                    <mxGeometry x="70" y="80" width="150" height="30" as="geometry"/>
                </mxCell>
                <mxCell id="411" value="FAQ" style="text;html=1;strokeColor=none;fillColor=none;align=left;verticalAlign=middle;whiteSpace=wrap;rounded=0;fontSize=13;fontColor=#000000;" parent="550" vertex="1">
                    <mxGeometry x="70" y="60" width="150" height="30" as="geometry"/>
                </mxCell>
                <mxCell id="412" value="Shipping &amp;amp; Return" style="text;html=1;strokeColor=none;fillColor=none;align=left;verticalAlign=middle;whiteSpace=wrap;rounded=0;fontSize=13;fontColor=#000000;" parent="550" vertex="1">
                    <mxGeometry x="70" y="101.25" width="150" height="30" as="geometry"/>
                </mxCell>
                <mxCell id="161" value="" style="group" parent="550" vertex="1" connectable="0">
                    <mxGeometry x="260" y="170" width="330" height="30" as="geometry"/>
                </mxCell>
                <mxCell id="145" value="&amp;nbsp;Copyright&amp;nbsp; &amp;nbsp; &amp;nbsp;2024 | Developed By &lt;i&gt;Team (2)&lt;/i&gt;" style="text;html=1;align=center;verticalAlign=middle;whiteSpace=wrap;rounded=0;" parent="161" vertex="1">
                    <mxGeometry width="330" height="30" as="geometry"/>
                </mxCell>
                <mxCell id="144" value="" style="strokeColor=#0f0f0f;verticalLabelPosition=bottom;shadow=0;dashed=0;verticalAlign=top;strokeWidth=1;html=1;shape=mxgraph.mockup.misc.copyrightIcon;perimeterSpacing=0;" parent="161" vertex="1">
                    <mxGeometry x="105" y="10" width="10" height="10" as="geometry"/>
                </mxCell>
                <mxCell id="667" value="" style="group" vertex="1" connectable="0" parent="2">
                    <mxGeometry x="510.0000000000001" y="385" width="98.5" height="180" as="geometry"/>
                </mxCell>
                <mxCell id="605" value="Game Img" style="rounded=0;whiteSpace=wrap;html=1;strokeColor=none;fontSize=15;fontColor=#333333;fillColor=#f5f5f5;container=0;" vertex="1" parent="667">
                    <mxGeometry width="98.5" height="130" as="geometry"/>
                </mxCell>
                <mxCell id="606" value="Game Title" style="text;html=1;strokeColor=none;fillColor=none;align=center;verticalAlign=middle;whiteSpace=wrap;rounded=0;fontSize=15;fontColor=#000000;container=0;" vertex="1" parent="667">
                    <mxGeometry x="3.5" y="130" width="91.5" height="30" as="geometry"/>
                </mxCell>
                <mxCell id="607" value="Platform" style="text;html=1;strokeColor=none;fillColor=none;align=center;verticalAlign=middle;whiteSpace=wrap;rounded=0;fontSize=13;fontColor=#808080;container=0;" vertex="1" parent="667">
                    <mxGeometry x="3.5" y="150" width="91.5" height="30" as="geometry"/>
                </mxCell>
                <mxCell id="668" value="" style="group" vertex="1" connectable="0" parent="2">
                    <mxGeometry x="649.12" y="385" width="98.5" height="180" as="geometry"/>
                </mxCell>
                <mxCell id="609" value="Game Img" style="rounded=0;whiteSpace=wrap;html=1;strokeColor=none;fontSize=15;fontColor=#333333;fillColor=#f5f5f5;container=0;" vertex="1" parent="668">
                    <mxGeometry width="98.5" height="130" as="geometry"/>
                </mxCell>
                <mxCell id="610" value="Game Title" style="text;html=1;strokeColor=none;fillColor=none;align=center;verticalAlign=middle;whiteSpace=wrap;rounded=0;fontSize=15;fontColor=#000000;container=0;" vertex="1" parent="668">
                    <mxGeometry x="3.5" y="130" width="91.5" height="30" as="geometry"/>
                </mxCell>
                <mxCell id="611" value="Platform" style="text;html=1;strokeColor=none;fillColor=none;align=center;verticalAlign=middle;whiteSpace=wrap;rounded=0;fontSize=13;fontColor=#808080;container=0;" vertex="1" parent="668">
                    <mxGeometry x="3.5" y="150" width="91.5" height="30" as="geometry"/>
                </mxCell>
                <mxCell id="669" value="" style="group" vertex="1" connectable="0" parent="2">
                    <mxGeometry x="703.5" y="345" width="46.5" height="30" as="geometry"/>
                </mxCell>
                <mxCell id="603" value="" style="html=1;verticalLabelPosition=bottom;labelBackgroundColor=#ffffff;verticalAlign=top;shadow=0;dashed=0;strokeWidth=2;shape=mxgraph.ios7.misc.right;strokeColor=#000000;fontSize=15;fontColor=#000000;fillColor=none;container=0;" vertex="1" parent="669">
                    <mxGeometry x="40.5" y="9" width="6" height="12" as="geometry"/>
                </mxCell>
                <mxCell id="616" value="All" style="text;html=1;strokeColor=none;fillColor=none;align=center;verticalAlign=middle;whiteSpace=wrap;rounded=0;fontSize=15;fontColor=#000000;container=0;fontStyle=4" vertex="1" parent="669">
                    <mxGeometry width="46.5" height="30" as="geometry"/>
                </mxCell>
                <mxCell id="415" value="" style="rounded=0;whiteSpace=wrap;html=1;fontSize=13;" parent="1" vertex="1">
                    <mxGeometry x="1100" y="590" width="360" height="1520" as="geometry"/>
                </mxCell>
                <mxCell id="428" value="" style="group" parent="1" vertex="1" connectable="0">
                    <mxGeometry x="1130" y="670" width="330" height="50" as="geometry"/>
                </mxCell>
                <mxCell id="429" value="" style="html=1;verticalLabelPosition=bottom;align=center;labelBackgroundColor=#ffffff;verticalAlign=top;strokeWidth=2;strokeColor=#000000;shadow=0;dashed=0;shape=mxgraph.ios7.icons.looking_glass;fontSize=15;fontColor=#000000;fillColor=none;" parent="428" vertex="1">
                    <mxGeometry x="270" y="4.939999999999998" width="20" height="20.12" as="geometry"/>
                </mxCell>
                <mxCell id="430" value="&amp;nbsp; Search" style="rounded=1;whiteSpace=wrap;html=1;strokeColor=#000000;fontSize=15;fontColor=#000000;fillColor=none;align=left;" parent="428" vertex="1">
                    <mxGeometry width="300" height="30" as="geometry"/>
                </mxCell>
                <mxCell id="431" value="" style="rounded=0;whiteSpace=wrap;html=1;strokeColor=default;fontSize=13;fontColor=#000000;fillColor=none;" parent="428" vertex="1">
                    <mxGeometry x="-30" y="-10" width="360" height="50" as="geometry"/>
                </mxCell>
                <mxCell id="551" value="" style="group" parent="1" vertex="1" connectable="0">
                    <mxGeometry x="1100" y="1650" width="360" height="460" as="geometry"/>
                </mxCell>
                <mxCell id="529" value="" style="rounded=0;whiteSpace=wrap;html=1;" parent="551" vertex="1">
                    <mxGeometry width="360" height="460" as="geometry"/>
                </mxCell>
                <mxCell id="530" value="&lt;b&gt;&lt;font style=&quot;font-size: 16px;&quot;&gt;Follow Us&lt;/font&gt;&lt;/b&gt;" style="text;html=1;align=left;verticalAlign=middle;whiteSpace=wrap;rounded=0;" parent="551" vertex="1">
                    <mxGeometry x="20" y="308.75" width="120" height="30" as="geometry"/>
                </mxCell>
                <mxCell id="531" value="" style="shape=image;html=1;verticalAlign=top;verticalLabelPosition=bottom;labelBackgroundColor=#ffffff;imageAspect=0;aspect=fixed;image=https://cdn2.iconfinder.com/data/icons/social-media-2285/512/1_Facebook_colored_svg_copy-128.png;fillColor=none;strokeColor=none;" parent="551" vertex="1">
                    <mxGeometry x="23" y="351.25" width="27.5" height="27.5" as="geometry"/>
                </mxCell>
                <mxCell id="532" value="" style="shape=image;html=1;verticalAlign=top;verticalLabelPosition=bottom;labelBackgroundColor=#ffffff;imageAspect=0;aspect=fixed;image=https://cdn3.iconfinder.com/data/icons/2018-social-media-logotypes/1000/2018_social_media_popular_app_logo_twitter-128.png;fillColor=none;strokeColor=none;" parent="551" vertex="1">
                    <mxGeometry x="68" y="351.25" width="27.5" height="27.5" as="geometry"/>
                </mxCell>
                <mxCell id="533" value="" style="shape=image;html=1;verticalAlign=top;verticalLabelPosition=bottom;labelBackgroundColor=#ffffff;imageAspect=0;aspect=fixed;image=https://cdn4.iconfinder.com/data/icons/social-media-flat-7/64/Social-media_Youtube-128.png;fillColor=none;strokeColor=none;" parent="551" vertex="1">
                    <mxGeometry x="111" y="350" width="30" height="30" as="geometry"/>
                </mxCell>
                <mxCell id="534" value="" style="dashed=0;outlineConnect=0;html=1;align=center;labelPosition=center;verticalLabelPosition=bottom;verticalAlign=top;shape=mxgraph.weblogos.instagram;fillColor=none;strokeColor=none;" parent="551" vertex="1">
                    <mxGeometry x="156" y="351.25" width="29" height="27.5" as="geometry"/>
                </mxCell>
                <mxCell id="536" value="&lt;b&gt;&lt;font style=&quot;font-size: 16px;&quot;&gt;Support&lt;/font&gt;&lt;/b&gt;" style="text;html=1;align=left;verticalAlign=middle;whiteSpace=wrap;rounded=0;" parent="551" vertex="1">
                    <mxGeometry x="20" y="20" width="120" height="30" as="geometry"/>
                </mxCell>
                <mxCell id="537" value="&lt;span style=&quot;font-size: 16px;&quot;&gt;&lt;b&gt;Corporate&lt;/b&gt;&lt;/span&gt;" style="text;html=1;align=left;verticalAlign=middle;whiteSpace=wrap;rounded=0;" parent="551" vertex="1">
                    <mxGeometry x="20" y="130" width="120" height="30" as="geometry"/>
                </mxCell>
                <mxCell id="538" value="&lt;b&gt;&lt;font style=&quot;font-size: 16px;&quot;&gt;Legal&lt;/font&gt;&lt;/b&gt;" style="text;html=1;align=left;verticalAlign=middle;whiteSpace=wrap;rounded=0;" parent="551" vertex="1">
                    <mxGeometry x="20" y="220" width="120" height="30" as="geometry"/>
                </mxCell>
                <mxCell id="539" value="Privacy Policy" style="text;html=1;strokeColor=none;fillColor=none;align=left;verticalAlign=middle;whiteSpace=wrap;rounded=0;fontSize=13;fontColor=#000000;" parent="551" vertex="1">
                    <mxGeometry x="20" y="250" width="150" height="30" as="geometry"/>
                </mxCell>
                <mxCell id="540" value="Terms &amp;amp; Conditions" style="text;html=1;strokeColor=none;fillColor=none;align=left;verticalAlign=middle;whiteSpace=wrap;rounded=0;fontSize=13;fontColor=#000000;" parent="551" vertex="1">
                    <mxGeometry x="20" y="270" width="150" height="30" as="geometry"/>
                </mxCell>
                <mxCell id="541" value="About Us" style="text;html=1;strokeColor=none;fillColor=none;align=left;verticalAlign=middle;whiteSpace=wrap;rounded=0;fontSize=13;fontColor=#000000;" parent="551" vertex="1">
                    <mxGeometry x="20" y="160" width="150" height="30" as="geometry"/>
                </mxCell>
                <mxCell id="542" value="Our Store" style="text;html=1;strokeColor=none;fillColor=none;align=left;verticalAlign=middle;whiteSpace=wrap;rounded=0;fontSize=13;fontColor=#000000;" parent="551" vertex="1">
                    <mxGeometry x="20" y="180" width="150" height="30" as="geometry"/>
                </mxCell>
                <mxCell id="543" value="Contact Us" style="text;html=1;strokeColor=none;fillColor=none;align=left;verticalAlign=middle;whiteSpace=wrap;rounded=0;fontSize=13;fontColor=#000000;" parent="551" vertex="1">
                    <mxGeometry x="20" y="70" width="150" height="30" as="geometry"/>
                </mxCell>
                <mxCell id="544" value="FAQ" style="text;html=1;strokeColor=none;fillColor=none;align=left;verticalAlign=middle;whiteSpace=wrap;rounded=0;fontSize=13;fontColor=#000000;" parent="551" vertex="1">
                    <mxGeometry x="20" y="50" width="150" height="30" as="geometry"/>
                </mxCell>
                <mxCell id="545" value="Shipping &amp;amp; Return" style="text;html=1;strokeColor=none;fillColor=none;align=left;verticalAlign=middle;whiteSpace=wrap;rounded=0;fontSize=13;fontColor=#000000;" parent="551" vertex="1">
                    <mxGeometry x="20" y="91.25" width="150" height="30" as="geometry"/>
                </mxCell>
                <mxCell id="546" value="" style="group;align=left;" parent="551" vertex="1" connectable="0">
                    <mxGeometry x="20" y="420" width="330" height="30" as="geometry"/>
                </mxCell>
                <mxCell id="547" value="&amp;nbsp;Copyright&amp;nbsp; &amp;nbsp; &amp;nbsp;2024 | Developed By &lt;i&gt;Team (2)&lt;/i&gt;" style="text;html=1;align=left;verticalAlign=middle;whiteSpace=wrap;rounded=0;" parent="546" vertex="1">
                    <mxGeometry width="330" height="30" as="geometry"/>
                </mxCell>
                <mxCell id="548" value="" style="strokeColor=#0f0f0f;verticalLabelPosition=bottom;shadow=0;dashed=0;verticalAlign=top;strokeWidth=1;html=1;shape=mxgraph.mockup.misc.copyrightIcon;perimeterSpacing=0;align=left;" parent="546" vertex="1">
                    <mxGeometry x="60" y="10" width="10" height="10" as="geometry"/>
                </mxCell>
                <mxCell id="535" value="" style="verticalLabelPosition=bottom;shadow=0;dashed=0;align=center;html=1;verticalAlign=top;strokeWidth=1;shape=mxgraph.mockup.markup.line;strokeColor=#999999;fontSize=16;fontColor=#000000;fillColor=#808080;" parent="546" vertex="1">
                    <mxGeometry y="-20" width="320" height="20" as="geometry"/>
                </mxCell>
                <mxCell id="570" value="" style="group" parent="1" vertex="1" connectable="0">
                    <mxGeometry x="1100" y="590" width="360" height="70" as="geometry"/>
                </mxCell>
                <mxCell id="416" value="" style="rounded=0;whiteSpace=wrap;html=1;strokeColor=default;fontSize=13;fontColor=#000000;fillColor=none;" parent="570" vertex="1">
                    <mxGeometry width="360" height="70" as="geometry"/>
                </mxCell>
                <mxCell id="417" value="Gamestopia" style="text;strokeColor=none;fillColor=none;html=1;fontSize=24;fontStyle=1;verticalAlign=middle;align=center;" parent="570" vertex="1">
                    <mxGeometry x="80" y="17.5" width="160" height="40" as="geometry"/>
                </mxCell>
                <mxCell id="419" value="" style="html=1;verticalLabelPosition=bottom;align=center;labelBackgroundColor=#ffffff;verticalAlign=top;strokeWidth=2;strokeColor=#000000;shadow=0;dashed=0;shape=mxgraph.ios7.icons.user;fillColor=none;" parent="570" vertex="1">
                    <mxGeometry x="260" y="20" width="30" height="30" as="geometry"/>
                </mxCell>
                <mxCell id="427" value="" style="html=1;verticalLabelPosition=bottom;labelBackgroundColor=#ffffff;verticalAlign=top;shadow=0;dashed=0;strokeWidth=2;shape=mxgraph.ios7.misc.options;fillColor=#222222;sketch=0;strokeColor=default;fontSize=13;fontColor=#000000;" parent="570" vertex="1">
                    <mxGeometry x="20" y="25" width="30" height="25" as="geometry"/>
                </mxCell>
                <mxCell id="568" value="" style="html=1;verticalLabelPosition=bottom;align=center;labelBackgroundColor=#ffffff;verticalAlign=top;strokeWidth=2;strokeColor=#000000;shadow=0;dashed=0;shape=mxgraph.ios7.icons.bookmark;" parent="570" vertex="1">
                    <mxGeometry x="310" y="20" width="22.5" height="30" as="geometry"/>
                </mxCell>
                <mxCell id="632" value="Nickname" style="text;html=1;strokeColor=none;fillColor=none;align=left;verticalAlign=middle;whiteSpace=wrap;rounded=0;fontSize=18;" vertex="1" parent="1">
                    <mxGeometry x="320" y="1190" width="100" height="30" as="geometry"/>
                </mxCell>
                <mxCell id="634" value="" style="verticalLabelPosition=bottom;shadow=0;dashed=0;align=center;html=1;verticalAlign=top;strokeWidth=1;shape=mxgraph.mockup.markup.line;strokeColor=#999999;fontSize=18;fillColor=none;" vertex="1" parent="1">
                    <mxGeometry x="312.5" y="1250" width="647.5" height="20" as="geometry"/>
                </mxCell>
                <mxCell id="640" value="mm/yy" style="text;html=1;strokeColor=none;fillColor=none;align=left;verticalAlign=middle;whiteSpace=wrap;rounded=0;fontSize=18;" vertex="1" parent="1">
                    <mxGeometry x="701.75" y="1230" width="60" height="30" as="geometry"/>
                </mxCell>
                <mxCell id="642" value="BMO" style="text;html=1;strokeColor=none;fillColor=none;align=left;verticalAlign=middle;whiteSpace=wrap;rounded=0;fontSize=18;" vertex="1" parent="1">
                    <mxGeometry x="325" y="1270" width="60" height="30" as="geometry"/>
                </mxCell>
                <mxCell id="643" value="5678" style="text;html=1;strokeColor=none;fillColor=none;align=left;verticalAlign=middle;whiteSpace=wrap;rounded=0;fontSize=18;" vertex="1" parent="1">
                    <mxGeometry x="430" y="1270" width="60" height="30" as="geometry"/>
                </mxCell>
                <mxCell id="644" value="John Smith" style="text;html=1;strokeColor=none;fillColor=none;align=left;verticalAlign=middle;whiteSpace=wrap;rounded=0;fontSize=18;" vertex="1" parent="1">
                    <mxGeometry x="560" y="1270" width="103.75" height="30" as="geometry"/>
                </mxCell>
                <mxCell id="645" value="&lt;u&gt;Edit&amp;nbsp;&lt;/u&gt; &amp;nbsp; &amp;nbsp; &lt;u&gt;Remove&lt;/u&gt;" style="text;html=1;strokeColor=none;fillColor=none;align=left;verticalAlign=middle;whiteSpace=wrap;rounded=0;fontSize=18;" vertex="1" parent="1">
                    <mxGeometry x="820" y="1270" width="150" height="30" as="geometry"/>
                </mxCell>
                <mxCell id="646" value="" style="verticalLabelPosition=bottom;shadow=0;dashed=0;align=center;html=1;verticalAlign=top;strokeWidth=1;shape=mxgraph.mockup.markup.line;strokeColor=#999999;fontSize=18;fillColor=none;" vertex="1" parent="1">
                    <mxGeometry x="312.5" y="1290" width="647.5" height="20" as="geometry"/>
                </mxCell>
                <mxCell id="647" value="mm/yy" style="text;html=1;strokeColor=none;fillColor=none;align=left;verticalAlign=middle;whiteSpace=wrap;rounded=0;fontSize=18;" vertex="1" parent="1">
                    <mxGeometry x="701.75" y="1270" width="60" height="30" as="geometry"/>
                </mxCell>
                <mxCell id="649" value="Welcome, Username" style="text;html=1;strokeColor=none;fillColor=none;align=left;verticalAlign=middle;whiteSpace=wrap;rounded=0;fontSize=21;" vertex="1" parent="1">
                    <mxGeometry x="1120" y="750" width="230" height="30" as="geometry"/>
                </mxCell>
                <mxCell id="650" value="" style="rounded=0;whiteSpace=wrap;html=1;fontSize=18;fillColor=none;" vertex="1" parent="1">
                    <mxGeometry x="1125.5" y="1070" width="300" height="240" as="geometry"/>
                </mxCell>
                <mxCell id="651" value="" style="rounded=0;whiteSpace=wrap;html=1;fontSize=18;fillColor=none;" vertex="1" parent="1">
                    <mxGeometry x="1125.5" y="799" width="300" height="240" as="geometry"/>
                </mxCell>
                <mxCell id="652" value="Current Plan" style="text;html=1;strokeColor=none;fillColor=none;align=left;verticalAlign=middle;whiteSpace=wrap;rounded=0;fontSize=18;" vertex="1" parent="1">
                    <mxGeometry x="1139.5" y="815" width="220" height="30" as="geometry"/>
                </mxCell>
                <mxCell id="653" value="&lt;b&gt;Pro&lt;/b&gt;" style="text;html=1;strokeColor=none;fillColor=none;align=left;verticalAlign=middle;whiteSpace=wrap;rounded=0;fontSize=21;" vertex="1" parent="1">
                    <mxGeometry x="1139.5" y="855" width="60" height="30" as="geometry"/>
                </mxCell>
                <mxCell id="654" value="End date: yyyy/mm/dd&amp;nbsp; &amp;nbsp; &amp;nbsp; &amp;nbsp;&lt;u&gt;Renew&lt;/u&gt;" style="text;html=1;strokeColor=none;fillColor=none;align=left;verticalAlign=middle;whiteSpace=wrap;rounded=0;fontSize=18;" vertex="1" parent="1">
                    <mxGeometry x="1140.5" y="904" width="289.5" height="30" as="geometry"/>
                </mxCell>
                <mxCell id="655" value="Change my plan" style="rounded=1;whiteSpace=wrap;html=1;fontSize=18;" vertex="1" parent="1">
                    <mxGeometry x="1147" y="990" width="255.63" height="30" as="geometry"/>
                </mxCell>
                <mxCell id="656" value="Payment: VISA 1234&amp;nbsp; &amp;nbsp; &amp;nbsp; &amp;nbsp; &amp;nbsp;&amp;nbsp;&lt;u&gt;Edit&lt;/u&gt;" style="text;html=1;strokeColor=none;fillColor=none;align=left;verticalAlign=middle;whiteSpace=wrap;rounded=0;fontSize=18;" vertex="1" parent="1">
                    <mxGeometry x="1140.5" y="940" width="279.5" height="30" as="geometry"/>
                </mxCell>
                <mxCell id="657" value="My Rentals" style="text;html=1;strokeColor=none;fillColor=none;align=left;verticalAlign=middle;whiteSpace=wrap;rounded=0;fontSize=18;" vertex="1" parent="1">
                    <mxGeometry x="1145.5" y="1085" width="220" height="30" as="geometry"/>
                </mxCell>
                <mxCell id="659" value="Game Img" style="rounded=0;whiteSpace=wrap;html=1;strokeColor=none;fontSize=15;fontColor=#333333;fillColor=#f5f5f5;container=0;" vertex="1" parent="1">
                    <mxGeometry x="1155.5" y="1125" width="98.5" height="130" as="geometry"/>
                </mxCell>
                <mxCell id="660" value="Game Title" style="text;html=1;strokeColor=none;fillColor=none;align=center;verticalAlign=middle;whiteSpace=wrap;rounded=0;fontSize=15;fontColor=#000000;container=0;" vertex="1" parent="1">
                    <mxGeometry x="1159" y="1255" width="91.5" height="30" as="geometry"/>
                </mxCell>
                <mxCell id="661" value="Platform" style="text;html=1;strokeColor=none;fillColor=none;align=center;verticalAlign=middle;whiteSpace=wrap;rounded=0;fontSize=13;fontColor=#808080;container=0;" vertex="1" parent="1">
                    <mxGeometry x="1159" y="1275" width="91.5" height="30" as="geometry"/>
                </mxCell>
                <mxCell id="662" value="Game Img" style="rounded=0;whiteSpace=wrap;html=1;strokeColor=none;fontSize=15;fontColor=#333333;fillColor=#f5f5f5;container=0;" vertex="1" parent="1">
                    <mxGeometry x="1294.62" y="1125" width="98.5" height="130" as="geometry"/>
                </mxCell>
                <mxCell id="663" value="Game Title" style="text;html=1;strokeColor=none;fillColor=none;align=center;verticalAlign=middle;whiteSpace=wrap;rounded=0;fontSize=15;fontColor=#000000;container=0;" vertex="1" parent="1">
                    <mxGeometry x="1298.12" y="1255" width="91.5" height="30" as="geometry"/>
                </mxCell>
                <mxCell id="664" value="Platform" style="text;html=1;strokeColor=none;fillColor=none;align=center;verticalAlign=middle;whiteSpace=wrap;rounded=0;fontSize=13;fontColor=#808080;container=0;" vertex="1" parent="1">
                    <mxGeometry x="1298.12" y="1275" width="91.5" height="30" as="geometry"/>
                </mxCell>
                <mxCell id="666" value="" style="group" vertex="1" connectable="0" parent="1">
                    <mxGeometry x="1343.12" y="1085" width="46.5" height="30" as="geometry"/>
                </mxCell>
                <mxCell id="658" value="" style="html=1;verticalLabelPosition=bottom;labelBackgroundColor=#ffffff;verticalAlign=top;shadow=0;dashed=0;strokeWidth=2;shape=mxgraph.ios7.misc.right;strokeColor=#000000;fontSize=15;fontColor=#000000;fillColor=none;container=0;" vertex="1" parent="666">
                    <mxGeometry x="40.5" y="9" width="6" height="12" as="geometry"/>
                </mxCell>
                <mxCell id="665" value="All" style="text;html=1;strokeColor=none;fillColor=none;align=center;verticalAlign=middle;whiteSpace=wrap;rounded=0;fontSize=15;fontColor=#000000;container=0;fontStyle=4" vertex="1" parent="666">
                    <mxGeometry width="46.5" height="30" as="geometry"/>
                </mxCell>
                <mxCell id="670" value="My Addresses" style="rounded=0;whiteSpace=wrap;html=1;fontSize=18;fillColor=none;" vertex="1" parent="1">
                    <mxGeometry x="1125.5" y="1340" width="150" height="60" as="geometry"/>
                </mxCell>
                <mxCell id="671" value="My Payment Methods" style="rounded=0;whiteSpace=wrap;html=1;fontSize=18;fillColor=#f5f5f5;fontColor=#333333;strokeColor=#000000;fontStyle=4" vertex="1" parent="1">
                    <mxGeometry x="1276" y="1340" width="150" height="60" as="geometry"/>
                </mxCell>
                <mxCell id="672" value="" style="rounded=0;whiteSpace=wrap;html=1;fontSize=18;fillColor=none;" vertex="1" parent="1">
                    <mxGeometry x="1125.5" y="1400" width="300" height="200" as="geometry"/>
                </mxCell>
                <mxCell id="693" value="Ending with" style="text;html=1;strokeColor=none;fillColor=none;align=left;verticalAlign=middle;whiteSpace=wrap;rounded=0;fontSize=18;" vertex="1" parent="1">
                    <mxGeometry x="1242.5" y="1419" width="107.5" height="30" as="geometry"/>
                </mxCell>
                <mxCell id="694" value="" style="verticalLabelPosition=bottom;shadow=0;dashed=0;align=center;html=1;verticalAlign=top;strokeWidth=1;shape=mxgraph.mockup.markup.line;strokeColor=#999999;fontSize=18;fillColor=none;" vertex="1" parent="1">
                    <mxGeometry x="1135" y="1439" width="277" height="20" as="geometry"/>
                </mxCell>
                <mxCell id="695" value="TD" style="text;html=1;strokeColor=none;fillColor=none;align=left;verticalAlign=middle;whiteSpace=wrap;rounded=0;fontSize=18;" vertex="1" parent="1">
                    <mxGeometry x="1147.5" y="1459" width="60" height="30" as="geometry"/>
                </mxCell>
                <mxCell id="696" value="1234" style="text;html=1;strokeColor=none;fillColor=none;align=left;verticalAlign=middle;whiteSpace=wrap;rounded=0;fontSize=18;" vertex="1" parent="1">
                    <mxGeometry x="1242.5" y="1459" width="60" height="30" as="geometry"/>
                </mxCell>
                <mxCell id="699" value="Add a new card" style="text;html=1;strokeColor=none;fillColor=none;align=left;verticalAlign=middle;whiteSpace=wrap;rounded=0;fontSize=18;fontStyle=4" vertex="1" parent="1">
                    <mxGeometry x="1135" y="1549" width="137.5" height="30" as="geometry"/>
                </mxCell>
                <mxCell id="700" value="Nickname" style="text;html=1;strokeColor=none;fillColor=none;align=left;verticalAlign=middle;whiteSpace=wrap;rounded=0;fontSize=18;" vertex="1" parent="1">
                    <mxGeometry x="1142.5" y="1419" width="100" height="30" as="geometry"/>
                </mxCell>
                <mxCell id="701" value="" style="verticalLabelPosition=bottom;shadow=0;dashed=0;align=center;html=1;verticalAlign=top;strokeWidth=1;shape=mxgraph.mockup.markup.line;strokeColor=#999999;fontSize=18;fillColor=none;" vertex="1" parent="1">
                    <mxGeometry x="1135" y="1479" width="277" height="20" as="geometry"/>
                </mxCell>
                <mxCell id="703" value="BMO" style="text;html=1;strokeColor=none;fillColor=none;align=left;verticalAlign=middle;whiteSpace=wrap;rounded=0;fontSize=18;" vertex="1" parent="1">
                    <mxGeometry x="1147.5" y="1499" width="60" height="30" as="geometry"/>
                </mxCell>
                <mxCell id="704" value="5678" style="text;html=1;strokeColor=none;fillColor=none;align=left;verticalAlign=middle;whiteSpace=wrap;rounded=0;fontSize=18;" vertex="1" parent="1">
                    <mxGeometry x="1242.5" y="1499" width="60" height="30" as="geometry"/>
                </mxCell>
                <mxCell id="707" value="" style="verticalLabelPosition=bottom;shadow=0;dashed=0;align=center;html=1;verticalAlign=top;strokeWidth=1;shape=mxgraph.mockup.markup.line;strokeColor=#999999;fontSize=18;fillColor=none;" vertex="1" parent="1">
                    <mxGeometry x="1135" y="1519" width="277" height="20" as="geometry"/>
                </mxCell>
                <mxCell id="710" value="" style="dashed=0;aspect=fixed;verticalLabelPosition=bottom;verticalAlign=top;align=center;shape=mxgraph.gmdl.edit;strokeColor=none;fillColor=#737373;shadow=0;sketch=0;fontSize=18;" vertex="1" parent="1">
                    <mxGeometry x="1345.5" y="1462" width="20" height="20" as="geometry"/>
                </mxCell>
                <mxCell id="711" value="" style="shape=mxgraph.mockup.markup.redX;fillColor=#ff0000;html=1;shadow=0;strokeColor=none;fontSize=18;" vertex="1" parent="1">
                    <mxGeometry x="1380" y="1463" width="20" height="20" as="geometry"/>
                </mxCell>
                <mxCell id="712" value="" style="dashed=0;aspect=fixed;verticalLabelPosition=bottom;verticalAlign=top;align=center;shape=mxgraph.gmdl.edit;strokeColor=none;fillColor=#737373;shadow=0;sketch=0;fontSize=18;" vertex="1" parent="1">
                    <mxGeometry x="1345.5" y="1502" width="20" height="20" as="geometry"/>
                </mxCell>
                <mxCell id="713" value="" style="shape=mxgraph.mockup.markup.redX;fillColor=#ff0000;html=1;shadow=0;strokeColor=none;fontSize=18;" vertex="1" parent="1">
                    <mxGeometry x="1380" y="1503" width="20" height="20" as="geometry"/>
                </mxCell>
            </root>
        </mxGraphModel>
    </diagram>
</mxfile>